name Walk5.mot
datacolumns 19
datarows 20
range 0.97100000 0.99000000
endheader

                time	   L_ground_force_vx	   L_ground_force_vy	   L_ground_force_vz	   L_ground_force_px	   L_ground_force_py	   L_ground_force_pz	   R_ground_force_vx	   R_ground_force_vy	   R_ground_force_vz	   R_ground_force_px	   R_ground_force_py	   R_ground_force_pz	   L_ground_torque_x	   L_ground_torque_y	   L_ground_torque_z	   R_ground_torque_x	   R_ground_torque_y	   R_ground_torque_z	
          0.97100000	         -4.80651830	        166.66032820	        -21.30091764	         -0.00131043	          0.00000000	          0.00053388	         -0.00000000	          0.00000000	          0.00000000	          0.00000000	          0.00000000	          0.00000000	          0.00000000	          0.30655680	          0.00000000	          0.00000000	         -0.00000000	          0.00000000	
          0.97200000	         -5.73864715	        179.51571024	        -22.44822663	         -0.01507548	          0.00000000	          0.00172463	         -0.00000000	          0.00000000	          0.00000000	          0.00000000	          0.00000000	          0.00000000	          0.00000000	          0.32448637	          0.00000000	          0.00000000	         -0.00000000	          0.00000000	
          0.97300000	         -6.75131231	        192.67635230	        -23.62146576	         -0.02879798	          0.00000000	          0.00291101	         -0.00000000	          0.00000000	          0.00000000	          0.00000000	          0.00000000	          0.00000000	          0.00000000	          0.34283830	          0.00000000	          0.00000000	         -0.00000000	          0.00000000	
          0.97400000	         -7.84747100	        206.11921919	        -24.81796643	         -0.04244099	          0.00000000	          0.00408973	         -0.00000000	          0.00000000	          0.00000000	          0.00000000	          0.00000000	          0.00000000	          0.00000000	          0.36157479	          0.00000000	          0.00000000	         -0.00000000	          0.00000000	
          0.97500000	         -9.02997445	        219.81826661	        -26.03469124	         -0.05596714	          0.00000000	          0.00525745	         -0.00000000	          0.00000000	          0.00000000	          0.00000000	          0.00000000	          0.00000000	          0.00000000	          0.38065267	          0.00000000	          0.00000000	         -0.00000000	          0.00000000	
          0.97600000	        -10.30154768	        233.74425134	        -27.26821301	         -0.06933871	          0.00000000	          0.00641081	         -0.00000000	          0.00000000	          0.00000000	          0.00000000	          0.00000000	          0.00000000	          0.00000000	          0.40002307	          0.00000000	          0.00000000	         -0.00000000	          0.00000000	
          0.97700000	        -11.66475749	        247.86461412	        -28.51468590	         -0.08251864	          0.00000000	          0.00754649	         -0.00000000	          0.00000000	          0.00000000	          0.00000000	          0.00000000	          0.00000000	          0.00000000	          0.41963080	          0.00000000	          0.00000000	         -0.00000000	          0.00000000	
          0.97800000	        -13.12196721	        262.14347946	        -29.76980905	         -0.09547222	          0.00000000	          0.00866138	         -0.00000000	          0.00000000	          0.00000000	          0.00000000	          0.00000000	          0.00000000	          0.00000000	          0.43941398	          0.00000000	          0.00000000	         -0.00000000	          0.00000000	
          0.97900000	        -14.67528640	        276.54177845	        -31.02879202	         -0.10816817	          0.00000000	          0.00975264	         -0.00000000	          0.00000000	          0.00000000	          0.00000000	          0.00000000	          0.00000000	          0.00000000	          0.45930414	          0.00000000	          0.00000000	          0.00000000	          0.00000000	
          0.98000000	        -16.32651908	        291.01753111	        -32.28632870	         -0.12057875	          0.00000000	          0.01081774	         -0.00000000	          0.00000000	          0.00000000	          0.00000000	          0.00000000	          0.00000000	          0.00000000	          0.47922719	          0.00000000	          0.00000000	          0.00000000	          0.00000000	
          0.98100000	        -18.07710626	        305.52636434	        -33.53658249	         -0.13267962	          0.00000000	          0.01185440	         -0.00000000	          0.00000000	          0.00000000	          0.00000000	          0.00000000	          0.00000000	          0.00000000	          0.49910485	          0.00000000	          0.00000000	          0.00000000	          0.00000000	
          0.98200000	        -19.92805986	        320.02231551	        -34.77318777	         -0.14444964	          0.00000000	          0.01286058	         -0.00000000	          0.00000000	          0.00000000	          0.00000000	          0.00000000	          0.00000000	          0.00000000	          0.51885637	          0.00000000	          0.00000000	          0.00000000	          0.00000000	
          0.98300000	        -21.87988782	        334.45891102	        -35.98927584	         -0.15587071	          0.00000000	          0.01383446	         -0.00000000	          0.00000000	          0.00000000	          0.00000000	          0.00000000	          0.00000000	          0.00000000	          0.53840027	          0.00000000	          0.00000000	          0.00000000	          0.00000000	
          0.98400000	        -23.93251254	        348.79044047	        -37.17753239	         -0.16692755	          0.00000000	          0.01477443	         -0.00000000	          0.00000000	          0.00000000	          0.00000000	          0.00000000	          0.00000000	          0.00000000	          0.55765603	          0.00000000	          0.00000000	          0.00000000	          0.00000000	
          0.98500000	        -26.08518772	        362.97328559	        -38.33029027	         -0.17760755	          0.00000000	          0.01567906	         -0.00000000	          0.00000000	          0.00000000	          0.00000000	          0.00000000	          0.00000000	          0.00000000	          0.57654550	          0.00000000	          0.00000000	          0.00000000	          0.00000000	
          0.98600000	        -28.33642140	        376.96713702	        -39.43965516	         -0.18790059	          0.00000000	          0.01654711	         -0.00000000	          0.00000000	          0.00000000	          0.00000000	          0.00000000	          0.00000000	          0.00000000	          0.59499398	          0.00000000	          0.00000000	          0.00000000	          0.00000000	
          0.98700000	        -30.68391462	        390.73595243	        -40.49765496	         -0.19779887	          0.00000000	          0.01737747	         -0.00000000	          0.00000000	          0.00000000	          0.00000000	          0.00000000	          0.00000000	          0.00000000	          0.61293075	          0.00000000	          0.00000000	          0.00000000	          0.00000000	
          0.98800000	        -33.12452358	        404.24856676	        -41.49639942	         -0.20729672	          0.00000000	          0.01816922	         -0.00000000	          0.00000000	          0.00000000	          0.00000000	          0.00000000	          0.00000000	          0.00000000	          0.63028913	          0.00000000	          0.00000000	          0.00000000	          0.00000000	
          0.98900000	        -35.65424970	        417.47893409	        -42.42823617	         -0.21639048	          0.00000000	          0.01892158	         -0.00000000	          0.00000000	          0.00000000	          0.00000000	          0.00000000	          0.00000000	          0.00000000	          0.64700594	          0.00000000	          0.00000000	          0.00000000	          0.00000000	
          0.99000000	        -38.26825702	        430.40603945	        -43.28589132	         -0.22507832	          0.00000000	          0.01963389	         -0.00000000	          0.00000000	          0.00000000	          0.00000000	          0.00000000	          0.00000000	          0.00000000	          0.66302043	          0.00000000	          0.00000000	          0.00000000	          0.00000000	
